<mxfile host="app.diagrams.net" modified="2023-11-16T08:25:16.502Z" agent="Mozilla/5.0 (Windows NT 10.0; Win64; x64) AppleWebKit/537.36 (KHTML, like Gecko) Chrome/119.0.0.0 Safari/537.36" etag="tit45ebw6mNq0tjyrlwY" version="22.1.2" type="device">
  <diagram name="Page-1" id="hs7gq2iVR0BeVxe3wHe4">
    <mxGraphModel dx="1500" dy="836" grid="1" gridSize="10" guides="1" tooltips="1" connect="1" arrows="1" fold="1" page="1" pageScale="1" pageWidth="850" pageHeight="1100" math="0" shadow="0">
      <root>
        <mxCell id="0" />
        <mxCell id="1" parent="0" />
        <mxCell id="jmJI0a0CO0earya_8ORC-1" value="" style="image;html=1;image=img/lib/clip_art/computers/Database_Move_Stack_128x128.png" vertex="1" parent="1">
          <mxGeometry x="100" y="190" width="80" height="80" as="geometry" />
        </mxCell>
        <mxCell id="jmJI0a0CO0earya_8ORC-2" value="Source(SQLite)" style="swimlane;whiteSpace=wrap;html=1;" vertex="1" parent="1">
          <mxGeometry x="55" y="130" width="170" height="180" as="geometry" />
        </mxCell>
        <mxCell id="jmJI0a0CO0earya_8ORC-3" value="" style="endArrow=classic;html=1;rounded=0;" edge="1" parent="1">
          <mxGeometry width="50" height="50" relative="1" as="geometry">
            <mxPoint x="225" y="220" as="sourcePoint" />
            <mxPoint x="380" y="220" as="targetPoint" />
          </mxGeometry>
        </mxCell>
        <mxCell id="jmJI0a0CO0earya_8ORC-4" value="&lt;div style=&quot;color: rgb(212, 212, 212); background-color: rgb(30, 30, 30); font-family: Consolas, &amp;quot;Courier New&amp;quot;, monospace; font-weight: normal; font-size: 14px; line-height: 19px;&quot;&gt;&lt;div&gt;&lt;span style=&quot;color: #ce9178;&quot;&gt;csv_to_s3_bucket&lt;/span&gt;&lt;/div&gt;&lt;/div&gt;" style="text;whiteSpace=wrap;html=1;" vertex="1" parent="1">
          <mxGeometry x="240" y="170" width="130" height="40" as="geometry" />
        </mxCell>
        <mxCell id="jmJI0a0CO0earya_8ORC-12" style="edgeStyle=orthogonalEdgeStyle;rounded=0;orthogonalLoop=1;jettySize=auto;html=1;exitX=1;exitY=0.5;exitDx=0;exitDy=0;entryX=0;entryY=0.5;entryDx=0;entryDy=0;" edge="1" parent="1" source="jmJI0a0CO0earya_8ORC-5" target="jmJI0a0CO0earya_8ORC-14">
          <mxGeometry relative="1" as="geometry">
            <mxPoint x="780" y="430" as="targetPoint" />
          </mxGeometry>
        </mxCell>
        <mxCell id="jmJI0a0CO0earya_8ORC-5" value="S3 bucket" style="swimlane;whiteSpace=wrap;html=1;" vertex="1" parent="1">
          <mxGeometry x="380" y="130" width="170" height="180" as="geometry" />
        </mxCell>
        <mxCell id="jmJI0a0CO0earya_8ORC-6" value="" style="outlineConnect=0;dashed=0;verticalLabelPosition=bottom;verticalAlign=top;align=center;html=1;shape=mxgraph.aws3.s3;fillColor=#E05243;gradientColor=none;" vertex="1" parent="jmJI0a0CO0earya_8ORC-5">
          <mxGeometry x="46.75" y="47" width="76.5" height="93" as="geometry" />
        </mxCell>
        <mxCell id="jmJI0a0CO0earya_8ORC-7" value="Data warehouse" style="swimlane;whiteSpace=wrap;html=1;" vertex="1" parent="1">
          <mxGeometry x="720" y="130" width="560" height="470" as="geometry" />
        </mxCell>
        <mxCell id="jmJI0a0CO0earya_8ORC-9" value="" style="outlineConnect=0;dashed=0;verticalLabelPosition=bottom;verticalAlign=top;align=center;html=1;shape=mxgraph.aws3.redshift;fillColor=#2E73B8;gradientColor=none;" vertex="1" parent="jmJI0a0CO0earya_8ORC-7">
          <mxGeometry x="210" y="47" width="67.5" height="75" as="geometry" />
        </mxCell>
        <mxCell id="jmJI0a0CO0earya_8ORC-19" style="edgeStyle=orthogonalEdgeStyle;rounded=0;orthogonalLoop=1;jettySize=auto;html=1;entryX=0;entryY=0.5;entryDx=0;entryDy=0;" edge="1" parent="jmJI0a0CO0earya_8ORC-7" source="jmJI0a0CO0earya_8ORC-14" target="jmJI0a0CO0earya_8ORC-18">
          <mxGeometry relative="1" as="geometry" />
        </mxCell>
        <mxCell id="jmJI0a0CO0earya_8ORC-14" value="Bronze" style="swimlane;whiteSpace=wrap;html=1;" vertex="1" parent="jmJI0a0CO0earya_8ORC-7">
          <mxGeometry x="30" y="160" width="90" height="110" as="geometry" />
        </mxCell>
        <mxCell id="jmJI0a0CO0earya_8ORC-18" value="Silver" style="swimlane;whiteSpace=wrap;html=1;" vertex="1" parent="jmJI0a0CO0earya_8ORC-7">
          <mxGeometry x="220" y="160" width="90" height="280" as="geometry" />
        </mxCell>
        <mxCell id="jmJI0a0CO0earya_8ORC-20" value="&lt;div style=&quot;color: rgb(212, 212, 212); background-color: rgb(30, 30, 30); font-family: Consolas, &amp;quot;Courier New&amp;quot;, monospace; font-weight: normal; font-size: 14px; line-height: 19px;&quot;&gt;&lt;div&gt;&lt;span style=&quot;color: #ce9178;&quot;&gt;to_silver&lt;/span&gt;&lt;/div&gt;&lt;/div&gt;" style="text;whiteSpace=wrap;html=1;" vertex="1" parent="jmJI0a0CO0earya_8ORC-7">
          <mxGeometry x="130" y="170" width="100" height="40" as="geometry" />
        </mxCell>
        <mxCell id="jmJI0a0CO0earya_8ORC-21" value="Gold&lt;br&gt;" style="swimlane;whiteSpace=wrap;html=1;" vertex="1" parent="jmJI0a0CO0earya_8ORC-7">
          <mxGeometry x="440" y="150" width="90" height="290" as="geometry" />
        </mxCell>
        <mxCell id="jmJI0a0CO0earya_8ORC-22" style="edgeStyle=orthogonalEdgeStyle;rounded=0;orthogonalLoop=1;jettySize=auto;html=1;" edge="1" parent="jmJI0a0CO0earya_8ORC-7">
          <mxGeometry relative="1" as="geometry">
            <mxPoint x="310" y="189.5" as="sourcePoint" />
            <mxPoint x="440" y="190" as="targetPoint" />
          </mxGeometry>
        </mxCell>
        <mxCell id="jmJI0a0CO0earya_8ORC-23" style="edgeStyle=orthogonalEdgeStyle;rounded=0;orthogonalLoop=1;jettySize=auto;html=1;" edge="1" parent="jmJI0a0CO0earya_8ORC-7">
          <mxGeometry relative="1" as="geometry">
            <mxPoint x="310" y="240" as="sourcePoint" />
            <mxPoint x="440" y="240" as="targetPoint" />
          </mxGeometry>
        </mxCell>
        <mxCell id="jmJI0a0CO0earya_8ORC-25" style="edgeStyle=orthogonalEdgeStyle;rounded=0;orthogonalLoop=1;jettySize=auto;html=1;" edge="1" parent="jmJI0a0CO0earya_8ORC-7">
          <mxGeometry relative="1" as="geometry">
            <mxPoint x="310" y="340" as="sourcePoint" />
            <mxPoint x="440" y="340" as="targetPoint" />
          </mxGeometry>
        </mxCell>
        <mxCell id="jmJI0a0CO0earya_8ORC-26" style="edgeStyle=orthogonalEdgeStyle;rounded=0;orthogonalLoop=1;jettySize=auto;html=1;" edge="1" parent="jmJI0a0CO0earya_8ORC-7">
          <mxGeometry relative="1" as="geometry">
            <mxPoint x="310" y="380" as="sourcePoint" />
            <mxPoint x="440" y="380" as="targetPoint" />
          </mxGeometry>
        </mxCell>
        <mxCell id="jmJI0a0CO0earya_8ORC-27" style="edgeStyle=orthogonalEdgeStyle;rounded=0;orthogonalLoop=1;jettySize=auto;html=1;" edge="1" parent="jmJI0a0CO0earya_8ORC-7">
          <mxGeometry relative="1" as="geometry">
            <mxPoint x="310" y="430" as="sourcePoint" />
            <mxPoint x="440" y="430" as="targetPoint" />
          </mxGeometry>
        </mxCell>
        <mxCell id="jmJI0a0CO0earya_8ORC-32" value="&lt;div style=&quot;color: rgb(212, 212, 212); background-color: rgb(30, 30, 30); font-family: Consolas, &amp;quot;Courier New&amp;quot;, monospace; font-weight: normal; font-size: 14px; line-height: 19px;&quot;&gt;&lt;div&gt;&lt;span style=&quot;color: #d4d4d4;&quot;&gt;to_dim_status&lt;/span&gt;&lt;/div&gt;&lt;/div&gt;" style="text;whiteSpace=wrap;html=1;" vertex="1" parent="jmJI0a0CO0earya_8ORC-7">
          <mxGeometry x="320" y="150" width="120" height="30" as="geometry" />
        </mxCell>
        <mxCell id="jmJI0a0CO0earya_8ORC-29" value="&lt;div style=&quot;color: rgb(212, 212, 212); background-color: rgb(30, 30, 30); font-family: Consolas, &amp;quot;Courier New&amp;quot;, monospace; font-weight: normal; font-size: 14px; line-height: 19px;&quot;&gt;&lt;div&gt;&lt;span style=&quot;color: #d4d4d4;&quot;&gt;to_dim_grade&lt;/span&gt;&lt;/div&gt;&lt;/div&gt;" style="text;whiteSpace=wrap;html=1;" vertex="1" parent="jmJI0a0CO0earya_8ORC-7">
          <mxGeometry x="325" y="195" width="105" height="35" as="geometry" />
        </mxCell>
        <mxCell id="jmJI0a0CO0earya_8ORC-30" value="&lt;div style=&quot;color: rgb(212, 212, 212); background-color: rgb(30, 30, 30); font-family: Consolas, &amp;quot;Courier New&amp;quot;, monospace; font-weight: normal; font-size: 14px; line-height: 19px;&quot;&gt;&lt;div&gt;&lt;span style=&quot;color: #d4d4d4;&quot;&gt;to_dim_ownership&lt;/span&gt;&lt;/div&gt;&lt;/div&gt;" style="text;whiteSpace=wrap;html=1;" vertex="1" parent="jmJI0a0CO0earya_8ORC-7">
          <mxGeometry x="310" y="250" width="100" height="30" as="geometry" />
        </mxCell>
        <mxCell id="jmJI0a0CO0earya_8ORC-31" value="&lt;div style=&quot;color: rgb(212, 212, 212); background-color: rgb(30, 30, 30); font-family: Consolas, &amp;quot;Courier New&amp;quot;, monospace; font-weight: normal; font-size: 14px; line-height: 19px;&quot;&gt;&lt;div&gt;&lt;span style=&quot;color: #d4d4d4;&quot;&gt;to_dim_payment&lt;/span&gt;&lt;/div&gt;&lt;/div&gt;" style="text;whiteSpace=wrap;html=1;" vertex="1" parent="jmJI0a0CO0earya_8ORC-7">
          <mxGeometry x="320" y="300" width="140" height="30" as="geometry" />
        </mxCell>
        <mxCell id="jmJI0a0CO0earya_8ORC-28" value="&lt;div style=&quot;color: rgb(212, 212, 212); background-color: rgb(30, 30, 30); font-family: Consolas, &amp;quot;Courier New&amp;quot;, monospace; font-weight: normal; font-size: 14px; line-height: 19px;&quot;&gt;&lt;div&gt;&lt;span style=&quot;color: #d4d4d4;&quot;&gt;to_dim_calendar&lt;/span&gt;&lt;/div&gt;&lt;/div&gt;" style="text;whiteSpace=wrap;html=1;" vertex="1" parent="jmJI0a0CO0earya_8ORC-7">
          <mxGeometry x="320" y="340" width="115" height="30" as="geometry" />
        </mxCell>
        <mxCell id="jmJI0a0CO0earya_8ORC-33" value="&lt;div style=&quot;color: rgb(212, 212, 212); background-color: rgb(30, 30, 30); font-family: Consolas, &amp;quot;Courier New&amp;quot;, monospace; font-weight: normal; font-size: 14px; line-height: 19px;&quot;&gt;&lt;div&gt;&lt;span style=&quot;color: #d4d4d4;&quot;&gt;to_fct_credit&lt;/span&gt;&lt;/div&gt;&lt;/div&gt;" style="text;whiteSpace=wrap;html=1;" vertex="1" parent="jmJI0a0CO0earya_8ORC-7">
          <mxGeometry x="315" y="390" width="130" height="30" as="geometry" />
        </mxCell>
        <mxCell id="jmJI0a0CO0earya_8ORC-35" style="edgeStyle=orthogonalEdgeStyle;rounded=0;orthogonalLoop=1;jettySize=auto;html=1;" edge="1" parent="jmJI0a0CO0earya_8ORC-7">
          <mxGeometry relative="1" as="geometry">
            <mxPoint x="310" y="294.72" as="sourcePoint" />
            <mxPoint x="440" y="294.72" as="targetPoint" />
          </mxGeometry>
        </mxCell>
        <mxCell id="jmJI0a0CO0earya_8ORC-10" value="&lt;div style=&quot;color: rgb(212, 212, 212); background-color: rgb(30, 30, 30); font-family: Consolas, &amp;quot;Courier New&amp;quot;, monospace; font-weight: normal; font-size: 14px; line-height: 19px;&quot;&gt;&lt;div style=&quot;line-height: 19px;&quot;&gt;to_bronze&lt;/div&gt;&lt;/div&gt;" style="text;whiteSpace=wrap;html=1;" vertex="1" parent="1">
          <mxGeometry x="570" y="180" width="130" height="40" as="geometry" />
        </mxCell>
      </root>
    </mxGraphModel>
  </diagram>
</mxfile>
